<svg xmlns="http://www.w3.org/2000/svg" viewBox="0 0 512 512">
  <rect width="512" height="512" rx="104" fill="#0c4a6e"/>
  <g transform="rotate(-40 256 190)">
    <rect x="236" y="120" width="40" height="190" rx="20" fill="#2dd4bf"/>
    <circle cx="256" cy="112" r="62" fill="#2dd4bf"/>
    <rect x="236" y="40" width="40" height="78" rx="6" fill="#0c4a6e"/>
  </g>
  <path d="M88 304h336l-48 74a44 44 0 0 1-37 20H173a44 44 0 0 1-37-20z" fill="#ffffff"/>
  <path d="M72 438c30 0 30-16 60-16s30 16 60 16 30-16 60-16 30 16 60 16 30-16 60-16 30 16 60 16" fill="none" stroke="#2dd4bf" stroke-width="18" stroke-linecap="round"/>
</svg>
